<svg width="1600" height="1200" viewBox="0 0 1600 1200" fill="none" xmlns="http://www.w3.org/2000/svg">
  <rect width="1600" height="1200" rx="48" fill="#07101B"/>
  <rect x="70" y="70" width="1460" height="1060" rx="36" fill="url(#panel)"/>
  <g opacity="0.22" stroke="#8DB0EA">
    <path d="M210 180H1390"/>
    <path d="M210 320H1390"/>
    <path d="M210 460H1390"/>
    <path d="M210 600H1390"/>
    <path d="M210 740H1390"/>
    <path d="M210 880H1390"/>
    <path d="M210 1020H1390"/>
    <path d="M280 150V1050"/>
    <path d="M470 150V1050"/>
    <path d="M660 150V1050"/>
    <path d="M850 150V1050"/>
    <path d="M1040 150V1050"/>
    <path d="M1230 150V1050"/>
  </g>
  <g filter="url(#glow)">
    <circle cx="495" cy="366" r="12" fill="#9DC4FF"/>
    <circle cx="858" cy="286" r="12" fill="#88F0D1"/>
    <circle cx="1208" cy="576" r="12" fill="#F8C186"/>
    <circle cx="638" cy="770" r="12" fill="#9DC4FF"/>
    <circle cx="984" cy="890" r="12" fill="#88F0D1"/>
  </g>
  <g stroke-linecap="round">
    <path d="M495 366C553 366 565 286 646 286H858" stroke="#9DC4FF" stroke-width="4"/>
    <path d="M858 286C982 286 1035 576 1208 576" stroke="#88F0D1" stroke-width="4"/>
    <path d="M495 366C495 553 638 553 638 770" stroke="#7CA5EA" stroke-width="4"/>
    <path d="M638 770C771 770 784 890 984 890" stroke="#8ABFD4" stroke-width="4"/>
  </g>
  <g fill="#0C1827" stroke="#2A425E">
    <rect x="350" y="212" width="280" height="122" rx="22"/>
    <rect x="722" y="214" width="308" height="144" rx="22"/>
    <rect x="1072" y="500" width="244" height="134" rx="22"/>
    <rect x="468" y="696" width="336" height="150" rx="22"/>
    <rect x="866" y="810" width="286" height="126" rx="22"/>
  </g>
  <g fill="#DDE8F7">
    <rect x="388" y="246" width="110" height="10" rx="5"/>
    <rect x="388" y="270" width="176" height="10" rx="5" opacity="0.45"/>
    <rect x="388" y="294" width="132" height="10" rx="5" opacity="0.3"/>
    <rect x="760" y="248" width="138" height="10" rx="5"/>
    <rect x="760" y="274" width="220" height="10" rx="5" opacity="0.45"/>
    <rect x="760" y="300" width="184" height="10" rx="5" opacity="0.3"/>
    <rect x="1110" y="534" width="120" height="10" rx="5"/>
    <rect x="1110" y="560" width="168" height="10" rx="5" opacity="0.45"/>
    <rect x="1110" y="586" width="150" height="10" rx="5" opacity="0.3"/>
    <rect x="506" y="734" width="154" height="10" rx="5"/>
    <rect x="506" y="760" width="232" height="10" rx="5" opacity="0.45"/>
    <rect x="506" y="786" width="204" height="10" rx="5" opacity="0.3"/>
    <rect x="904" y="844" width="140" height="10" rx="5"/>
    <rect x="904" y="870" width="194" height="10" rx="5" opacity="0.45"/>
    <rect x="904" y="896" width="166" height="10" rx="5" opacity="0.3"/>
  </g>
  <defs>
    <linearGradient id="panel" x1="800" y1="70" x2="800" y2="1130" gradientUnits="userSpaceOnUse">
      <stop stop-color="#0C1829"/>
      <stop offset="1" stop-color="#09111B"/>
    </linearGradient>
    <filter id="glow" x="447" y="238" width="809" height="700" filterUnits="userSpaceOnUse" color-interpolation-filters="sRGB">
      <feFlood flood-opacity="0" result="BackgroundImageFix"/>
      <feBlend mode="normal" in="SourceGraphic" in2="BackgroundImageFix" result="shape"/>
      <feGaussianBlur stdDeviation="18" result="effect1_foregroundBlur_1_2"/>
    </filter>
  </defs>
</svg>
