<svg width="1400" height="980" viewBox="0 0 1400 980" fill="none" xmlns="http://www.w3.org/2000/svg">
  <rect width="1400" height="980" rx="36" fill="#0B1017"/>
  <rect x="56" y="56" width="1288" height="868" rx="28" fill="#131A22" stroke="#273545"/>
  <rect x="56" y="56" width="1288" height="84" rx="28" fill="#171F29"/>
  <circle cx="106" cy="98" r="8" fill="#D69C65"/>
  <circle cx="134" cy="98" r="8" fill="#E6B98D"/>
  <circle cx="162" cy="98" r="8" fill="#F1D2B4"/>
  <rect x="118" y="190" width="1120" height="326" rx="28" fill="#102133"/>
  <rect x="162" y="234" width="196" height="14" rx="7" fill="#F6F8FB"/>
  <rect x="162" y="270" width="252" height="12" rx="6" fill="#8895A6"/>
  <rect x="162" y="340" width="214" height="48" rx="24" fill="#D69C65"/>
  <path d="M812 222H1160V478H700L812 222Z" fill="#24415E"/>
  <path d="M820 244L1102 244L1036 424H754L820 244Z" fill="#355A80"/>
  <rect x="118" y="572" width="340" height="250" rx="24" fill="#141F2B" stroke="#2F4358"/>
  <rect x="530" y="572" width="340" height="250" rx="24" fill="#141F2B" stroke="#2F4358"/>
  <rect x="942" y="572" width="296" height="250" rx="24" fill="#141F2B" stroke="#2F4358"/>
  <rect x="156" y="620" width="142" height="10" rx="5" fill="#F6F8FB"/>
  <rect x="156" y="650" width="216" height="10" rx="5" fill="#8794A5"/>
  <rect x="156" y="704" width="258" height="74" rx="18" fill="#223347"/>
  <rect x="568" y="620" width="138" height="10" rx="5" fill="#F6F8FB"/>
  <rect x="568" y="650" width="190" height="10" rx="5" fill="#8794A5"/>
  <rect x="568" y="704" width="262" height="74" rx="18" fill="#223347"/>
  <rect x="978" y="620" width="146" height="10" rx="5" fill="#F6F8FB"/>
  <rect x="978" y="650" width="182" height="10" rx="5" fill="#8794A5"/>
  <rect x="978" y="704" width="224" height="74" rx="18" fill="#D69C65"/>
</svg>
