<svg width="1400" height="980" viewBox="0 0 1400 980" fill="none" xmlns="http://www.w3.org/2000/svg">
  <rect width="1400" height="980" rx="36" fill="#07101A"/>
  <rect x="48" y="48" width="1304" height="884" rx="28" fill="#0E1724" stroke="#223346"/>
  <rect x="48" y="48" width="1304" height="80" rx="28" fill="#111D2D"/>
  <circle cx="96" cy="88" r="8" fill="#4E85D6"/>
  <circle cx="124" cy="88" r="8" fill="#8FB4FF"/>
  <circle cx="152" cy="88" r="8" fill="#B6D0FF"/>
  <rect x="100" y="190" width="280" height="660" rx="24" fill="#132133" stroke="#27435B"/>
  <rect x="432" y="190" width="820" height="660" rx="24" fill="#101A28" stroke="#27435B"/>
  <rect x="138" y="236" width="126" height="12" rx="6" fill="#F6F8FB"/>
  <rect x="138" y="266" width="184" height="10" rx="5" fill="#7F8EA2"/>
  <rect x="138" y="328" width="204" height="68" rx="18" fill="#173251"/>
  <rect x="138" y="420" width="204" height="68" rx="18" fill="#13283F"/>
  <rect x="138" y="512" width="204" height="68" rx="18" fill="#13283F"/>
  <rect x="138" y="604" width="204" height="68" rx="18" fill="#13283F"/>
  <rect x="138" y="696" width="204" height="68" rx="18" fill="#13283F"/>
  <rect x="474" y="236" width="210" height="12" rx="6" fill="#F6F8FB"/>
  <rect x="474" y="270" width="288" height="10" rx="5" fill="#7F8EA2"/>
  <rect x="474" y="326" width="736" height="420" rx="28" fill="#132033"/>
  <g opacity="0.32" stroke="#365B7B">
    <path d="M534 392H1150"/>
    <path d="M534 470H1150"/>
    <path d="M534 548H1150"/>
    <path d="M534 626H1150"/>
    <path d="M634 348V698"/>
    <path d="M770 348V698"/>
    <path d="M906 348V698"/>
    <path d="M1042 348V698"/>
  </g>
  <rect x="642" y="424" width="120" height="112" rx="18" fill="#4E85D6"/>
  <rect x="916" y="502" width="120" height="112" rx="18" fill="#8FB4FF"/>
  <rect x="778" y="580" width="120" height="112" rx="18" fill="#6CA9FF"/>
  <rect x="474" y="780" width="198" height="22" rx="11" fill="#F6F8FB"/>
  <rect x="702" y="780" width="168" height="22" rx="11" fill="#6E7F94"/>
  <rect x="900" y="780" width="210" height="22" rx="11" fill="#6E7F94"/>
</svg>
