<svg width="1400" height="980" viewBox="0 0 1400 980" fill="none" xmlns="http://www.w3.org/2000/svg">
  <rect width="1400" height="980" rx="36" fill="#07101A"/>
  <rect x="56" y="56" width="1288" height="868" rx="28" fill="#0E1724" stroke="#223346"/>
  <rect x="56" y="56" width="1288" height="84" rx="28" fill="#111D2D"/>
  <circle cx="106" cy="98" r="8" fill="#56BCA0"/>
  <circle cx="134" cy="98" r="8" fill="#7BE0C4"/>
  <circle cx="162" cy="98" r="8" fill="#B2F4E1"/>
  <rect x="116" y="196" width="388" height="650" rx="24" fill="#0F1B29" stroke="#27435B"/>
  <rect x="556" y="196" width="672" height="650" rx="24" fill="#0F1B29" stroke="#27435B"/>
  <rect x="156" y="238" width="168" height="12" rx="6" fill="#F6F8FB"/>
  <rect x="156" y="270" width="224" height="10" rx="5" fill="#8090A4"/>
  <circle cx="310" cy="468" r="118" fill="#102637"/>
  <circle cx="310" cy="468" r="74" fill="#56BCA0" fill-opacity="0.15" stroke="#56BCA0"/>
  <circle cx="310" cy="468" r="28" fill="#7BE0C4"/>
  <circle cx="242" cy="390" r="18" fill="#56BCA0"/>
  <circle cx="398" cy="414" r="18" fill="#56BCA0"/>
  <circle cx="402" cy="546" r="18" fill="#56BCA0"/>
  <circle cx="230" cy="556" r="18" fill="#56BCA0"/>
  <path d="M242 390L310 468L398 414" stroke="#7BE0C4" stroke-width="4" stroke-linecap="round"/>
  <path d="M310 468L402 546L230 556" stroke="#7BE0C4" stroke-width="4" stroke-linecap="round"/>
  <rect x="606" y="238" width="164" height="12" rx="6" fill="#F6F8FB"/>
  <rect x="606" y="270" width="222" height="10" rx="5" fill="#8090A4"/>
  <rect x="606" y="336" width="168" height="420" rx="22" fill="#152637"/>
  <rect x="832" y="336" width="168" height="420" rx="22" fill="#132233"/>
  <rect x="1058" y="336" width="120" height="420" rx="22" fill="#111D2D"/>
  <rect x="630" y="372" width="120" height="66" rx="16" fill="#56BCA0"/>
  <rect x="630" y="460" width="120" height="66" rx="16" fill="#224862"/>
  <rect x="630" y="548" width="120" height="66" rx="16" fill="#224862"/>
  <rect x="856" y="408" width="120" height="66" rx="16" fill="#7BE0C4"/>
  <rect x="856" y="496" width="120" height="66" rx="16" fill="#56BCA0"/>
  <rect x="856" y="584" width="120" height="66" rx="16" fill="#224862"/>
  <rect x="1082" y="450" width="72" height="66" rx="16" fill="#B2F4E1"/>
  <rect x="1082" y="538" width="72" height="66" rx="16" fill="#56BCA0"/>
</svg>
